<svg id="Layer_1" enable-background="new 0 0 256 256" height="512" viewBox="0 0 256 256" width="512" xmlns="http://www.w3.org/2000/svg"><g><path d="m153.159 123.754h-50.318c-19.825 0-38.213 10.345-48.506 27.289l-20.668 34.024c-4.789 7.884.887 17.973 10.111 17.973h27.133v31.912h114.177v-31.912h27.133c9.225 0 14.901-10.089 10.111-17.973l-20.668-34.024c-10.292-16.944-28.68-27.289-48.505-27.289z" fill="#cecece"/><g fill="#e2e2e2"><path d="m222.332 185.067-20.668-34.024c-10.292-16.944-28.681-27.289-48.506-27.289h-6.5c19.825 0 38.213 10.345 48.506 27.289l20.668 34.024c4.789 7.884-.886 17.973-10.111 17.973h6.5c9.225 0 14.901-10.089 10.111-17.973z"/><path d="m178.588 203.04h6.5v31.912h-6.5z"/></g><g fill="#afafaf"><path d="m70.912 203.04h6.5v31.912h-6.5z"/><path d="m40.167 185.067 20.668-34.024c10.292-16.944 28.681-27.289 48.506-27.289h-6.5c-19.825 0-38.213 10.345-48.506 27.289l-20.668 34.024c-4.789 7.884.887 17.973 10.111 17.973h6.5c-9.224 0-14.9-10.089-10.111-17.973z"/></g><circle cx="92.926" cy="66.418" fill="#f87023" r="8.5"/><circle cx="163.074" cy="66.418" fill="#f8af23" r="8.5"/><path d="m129.671 134.388h-3.343c-7.732 0-14-6.268-14-14v-23.492c0-7.732 6.268-14 14-14h3.343c7.732 0 14 6.268 14 14v23.491c0 7.733-6.268 14.001-14 14.001z" fill="#f8af23"/><g><path d="m118.829 120.388v-23.492c0-7.198 5.434-13.12 12.421-13.905-.519-.058-1.044-.095-1.579-.095h-3.343c-7.732 0-14 6.268-14 14v23.491c0 7.732 6.268 14 14 14h3.343c.534 0 1.06-.036 1.579-.095-6.988-.784-12.421-6.707-12.421-13.904z" fill="#f87023"/></g><path d="m128 110.296c-19.371 0-35.074-15.703-35.074-35.074v-16.033c0-19.371 15.703-35.074 35.074-35.074 19.371 0 35.074 15.703 35.074 35.074v16.034c0 19.37-15.703 35.073-35.074 35.073z" fill="#f8af23"/><g><path d="m99.426 75.222v-16.033c0-18.274 13.978-33.278 31.824-34.918-1.071-.098-2.154-.156-3.25-.156-19.371 0-35.074 15.703-35.074 35.074v16.034c0 19.371 15.703 35.074 35.074 35.074 1.096 0 2.179-.057 3.25-.156-17.846-1.641-31.824-16.644-31.824-34.919z" fill="#f87023"/></g><path d="m112.329 116.384 15.671 18.004-12.966 8.115-6.996-18.749z" fill="#63bce7"/><path d="m143.671 116.384-15.671 18.004 12.966 8.115 6.996-18.749z" fill="#63bce7"/><path d="m108.038 123.754 19.962 34.141v36.1l-17.63-30.503h7.649l-12.686-11.194 1.144-28.537z" fill="#cecece"/><path d="m147.962 123.754-19.962 34.141v36.1l17.63-30.503h-7.649l12.686-11.194-1.144-28.537z" fill="#cecece"/><path d="m163.074 67.206h-3.214l-3.213-17.322 6.427-2z" fill="#9e9e9e"/><path d="m92.926 67.206h4.595l5.375-16.072s36.125 24.125 65.875-4.25c22.888-21.83-14.228-32.415-32.567-36.136-5.783-1.173-11.769-.804-17.374 1.043l-21.46 7.07c-3.59 1.183-6.015 4.535-6.015 8.315-5.026 5.026-6.868 12.415-4.791 19.212z" fill="#9e9e9e"/><g><path d="m97.855 27.175c0-3.78 2.426-7.132 6.015-8.315l21.46-7.07c2.416-.796 4.904-1.3 7.415-1.542-4.683-.452-9.421.061-13.915 1.542l-21.46 7.07c-3.59 1.183-6.015 4.535-6.015 8.315-5.026 5.026-6.868 12.415-4.791 19.212l6.362 20.819h4.595l.995-2.976-5.453-17.843c-2.077-6.797-.234-14.186 4.792-19.212z" fill="#707070"/></g><g fill="#3f3679"><circle cx="114.844" cy="73.027" r="3.125"/><circle cx="141.156" cy="73.027" r="3.125"/></g><path d="m93.575 132.081h68.85v102.871h-68.85z" fill="#9e9e9e"/><path d="m93.575 174.758v-11.096c0-2.644-2.143-4.788-4.787-4.788-2.644 0-4.787 2.143-4.787 4.788v10.879 28.499h7.254c7.247 0 13.121-5.875 13.121-13.121v-2.256c-.001-6.454-4.663-11.807-10.801-12.905z" fill="#f8af23"/><path d="m162.423 174.758v-11.096c0-2.644 2.143-4.788 4.787-4.788 2.644 0 4.787 2.143 4.787 4.788v10.879 28.499h-7.254c-7.247 0-13.121-5.875-13.121-13.121v-2.256c.001-6.454 4.664-11.807 10.801-12.905z" fill="#f8af23"/><path d="m70.912 171.785h13.088v31.254h-13.088z" fill="#63bce7"/><path d="m171.998 171.785h13.088v31.254h-13.088z" fill="#63bce7" transform="matrix(-1 0 0 -1 357.085 374.825)"/><circle cx="128" cy="159.25" fill="#f46275" r="15.75"/><g><path d="m125.592 167.058.388-9.026c.046-1.082.937-1.935 2.02-1.935 1.083 0 1.974.853 2.02 1.935l.388 9.026c.049 1.15-.869 2.109-2.02 2.109h-.775c-1.151 0-2.07-.959-2.021-2.109zm.016-15.176v-.526c0-1.117.905-2.022 2.022-2.022h.713c1.117 0 2.022.905 2.022 2.022v.526c0 1.117-.905 2.022-2.022 2.022h-.713c-1.116 0-2.022-.906-2.022-2.022z" fill="#3f3679"/></g><g fill="#3f3679"><path d="m27.323 244.425h-18.003c-.828 0-1.5.671-1.5 1.5s.672 1.5 1.5 1.5h18.003c.828 0 1.5-.671 1.5-1.5s-.672-1.5-1.5-1.5z"/><path d="m246.68 244.425h-18.003c-.828 0-1.5.671-1.5 1.5s.672 1.5 1.5 1.5h18.003c.828 0 1.5-.671 1.5-1.5s-.672-1.5-1.5-1.5z"/><path d="m218.479 244.425h-180.958c-.828 0-1.5.671-1.5 1.5s.672 1.5 1.5 1.5h180.959c.828 0 1.5-.671 1.5-1.5s-.672-1.5-1.501-1.5z"/><path d="m9.32 236.452h61.592 22.663 68.85 22.663 61.592c.828 0 1.5-.671 1.5-1.5s-.672-1.5-1.5-1.5h-60.092v-28.912h25.633c4.882 0 9.226-2.54 11.619-6.794s2.31-9.285-.225-13.457l-20.668-34.024c-10.496-17.277-29.573-28.01-49.788-28.01h-4.335l-3.653-6.273v-8.477c11.236-6.001 18.983-17.695 19.376-31.206 4.816-.716 8.527-4.867 8.527-9.879 0-5.003-3.697-9.147-8.5-9.875v-4.022c0-.039-.009-.077-.012-.115 1.765-1.317 3.516-2.789 5.244-4.437 6.367-6.073 8.804-11.898 7.242-17.313-1.838-6.373-10.364-15.254-40.545-21.377-6.007-1.219-12.278-.844-18.143 1.088l-21.46 7.067c-4.014 1.323-6.773 4.937-7.027 9.112-5.11 5.414-6.93 13.126-4.744 20.278l3.271 10.703c-3.338 1.7-5.474 5.101-5.474 8.888 0 5.013 3.711 9.163 8.527 9.879.393 13.51 8.14 25.205 19.376 31.206v8.477l-3.653 6.273h-4.335c-20.215 0-39.292 10.733-49.788 28.01l-20.668 34.024c-2.534 4.172-2.618 9.203-.225 13.457s6.737 6.794 11.619 6.794h25.633v28.913h-60.092c-.828 0-1.5.671-1.5 1.5s.672 1.502 1.5 1.502zm85.755-3v-29.437c6.212-1.686 10.8-7.359 10.8-14.097v-2.256c0-6.659-4.472-12.402-10.8-14.104v-9.896-30.08h65.85v30.061c0 .006-.001.013-.001.019v9.896c-6.328 1.702-10.801 7.445-10.801 14.104v2.256c0 6.739 4.589 12.411 10.802 14.097v29.436h-65.85zm-22.663-60.166h.088 10v28.254h-10.088zm13.088-1.5v-8.124c0-1.813 1.475-3.288 3.287-3.288 1.813 0 3.288 1.475 3.288 3.288v10.755.342c0 .727.521 1.349 1.236 1.477 5.541.991 9.563 5.797 9.563 11.427v2.256c0 6.408-5.213 11.621-11.621 11.621h-5.753zm27.072-52.838 10.126 11.633h-8.93l-3.993-6.83zm-4.701 7.492 2.422 4.142h-2.588zm35.557-7.492 2.798 4.803-3.993 6.83h-8.929zm4.701 7.492.166 4.142h-2.588zm35.369 46.846h.089v28.254h-10.089v-28.254zm-13-1.5v29.754h-5.753c-6.408 0-11.622-5.213-11.622-11.621v-2.256c0-5.63 4.022-10.436 9.564-11.427.716-.128 1.236-.75 1.236-1.477v-.582c0-.003.001-.006.001-.01v-10.515c.005-1.808 1.477-3.278 3.286-3.278 1.813 0 3.287 1.475 3.287 3.288v8.124zm-6.573 61.666v-28.954c.273.015.543.042.82.042h7.253 11.59v28.913h-19.663zm36.458-81.631 20.668 34.024c1.964 3.233 2.029 7.131.175 10.428-1.855 3.297-5.222 5.266-9.005 5.266h-25.634v-28.254h9.911c.828 0 1.5-.671 1.5-1.5s-.672-1.5-1.5-1.5h-11.411-1.589-10v-6.624c0-3.467-2.82-6.288-6.287-6.288-1.205 0-2.328.347-3.286.938v-26.23c0-.829-.672-1.5-1.5-1.5h-11.127l-.214-5.328h2.075c19.174 0 37.269 10.181 47.224 26.568zm-30.309-85.403c0 3.345-2.359 6.145-5.5 6.834v-6.046-7.622c3.141.689 5.5 3.489 5.5 6.834zm-8.5-7.23v6.517h-.467l-1.826-9.84c.766-.436 1.53-.9 2.293-1.39zm-63.734-38.903 21.461-7.07c5.365-1.768 11.107-2.113 16.606-.997 10.443 2.119 35.078 8.238 38.259 19.268 1.228 4.256-.936 9.071-6.43 14.312-11.939 11.388-26.296 15.561-42.672 12.398-11.038-2.131-19.319-7.046-21.002-8.099l-11.184-23.216c.122-3.015 2.074-5.645 4.962-6.596zm-6.856 9.578 10.296 21.372-4.839 14.47h-2.405l-6.038-19.757c-1.707-5.583-.552-11.562 2.986-16.085zm-5.058 36.555c0-2.474 1.293-4.724 3.363-5.982l2.137 6.994v5.822c-3.141-.689-5.5-3.489-5.5-6.834zm8.5 8.805v-6.517h3.096c.646 0 1.218-.413 1.423-1.024l4.782-14.299c6.331 3.614 29.714 15.167 52.776 3.949l1.883 10.149c.132.711.752 1.227 1.475 1.227h1.714v6.517c0 18.513-15.062 33.574-33.574 33.574s-33.575-15.064-33.575-33.576zm33.574 36.573c5.022 0 9.81-1.019 14.171-2.858v6.884l-12.846 14.759h-2.648l-12.847-14.759v-6.884c4.36 1.84 9.148 2.858 14.17 2.858zm-84.221 89.744c-3.783 0-7.149-1.968-9.005-5.266-1.854-3.297-1.789-7.195.175-10.428l20.668-34.024c9.955-16.388 28.05-26.568 47.224-26.568h2.075l-.214 5.328h-11.127c-.828 0-1.5.671-1.5 1.5v26.231c-.958-.591-2.082-.938-3.288-.938-3.467 0-6.287 2.821-6.287 6.288v6.624h-10-1.588-11.412c-.828 0-1.5.671-1.5 1.5s.672 1.5 1.5 1.5h9.912v28.254h-25.633zm28.633 3h11.588 7.254c.277 0 .548-.026.821-.042v28.954h-19.663z"/><path d="m121.031 64.918h-12.375c-.828 0-1.5.671-1.5 1.5s.672 1.5 1.5 1.5h12.375c.828 0 1.5-.671 1.5-1.5s-.672-1.5-1.5-1.5z"/><path d="m134.969 67.918h12.375c.828 0 1.5-.671 1.5-1.5s-.672-1.5-1.5-1.5h-12.375c-.828 0-1.5.671-1.5 1.5s.672 1.5 1.5 1.5z"/><path d="m127.146 88.758h3.719c.464 0 .901-.215 1.186-.582s.383-.844.267-1.293l-2.865-11.106c-.206-.802-1.022-1.285-1.827-1.078-.802.207-1.284 1.025-1.077 1.827l2.381 9.232h-1.782c-.828 0-1.5.671-1.5 1.5s.67 1.5 1.498 1.5z"/><path d="m133.229 97.658c.61-.56.651-1.509.092-2.119-.56-.611-1.509-.651-2.119-.092-1.762 1.614-4.641 1.614-6.402 0-.61-.56-1.558-.52-2.119.092-.56.61-.519 1.56.092 2.119 1.436 1.316 3.292 2.041 5.229 2.041s3.791-.725 5.227-2.041z"/><path d="m128 176.5c9.512 0 17.25-7.738 17.25-17.25s-7.738-17.25-17.25-17.25-17.25 7.738-17.25 17.25 7.738 17.25 17.25 17.25zm0-31.5c7.857 0 14.25 6.393 14.25 14.25s-6.393 14.25-14.25 14.25-14.25-6.393-14.25-14.25 6.393-14.25 14.25-14.25z"/><path d="m145.125 182.017h-34.25c-.828 0-1.5.671-1.5 1.5s.672 1.5 1.5 1.5h34.25c.828 0 1.5-.671 1.5-1.5s-.672-1.5-1.5-1.5z"/><path d="m145.125 189.667h-34.25c-.828 0-1.5.671-1.5 1.5s.672 1.5 1.5 1.5h34.25c.828 0 1.5-.671 1.5-1.5s-.672-1.5-1.5-1.5z"/><path d="m145.125 197.316h-34.25c-.828 0-1.5.671-1.5 1.5s.672 1.5 1.5 1.5h34.25c.828 0 1.5-.671 1.5-1.5s-.672-1.5-1.5-1.5z"/><path d="m145.125 204.967h-34.25c-.828 0-1.5.671-1.5 1.5s.672 1.5 1.5 1.5h34.25c.828 0 1.5-.671 1.5-1.5s-.672-1.5-1.5-1.5z"/><path d="m145.125 212.617h-34.25c-.828 0-1.5.671-1.5 1.5s.672 1.5 1.5 1.5h34.25c.828 0 1.5-.671 1.5-1.5s-.672-1.5-1.5-1.5z"/><path d="m145.125 220.267h-34.25c-.828 0-1.5.671-1.5 1.5s.672 1.5 1.5 1.5h34.25c.828 0 1.5-.671 1.5-1.5s-.672-1.5-1.5-1.5z"/></g></g></svg>