<svg id="Layer_1" enable-background="new 0 0 511.996 511.996" height="512" viewBox="0 0 511.996 511.996" width="512" xmlns="http://www.w3.org/2000/svg"><g><g><path d="m343.634 241.896h-42.743l-1.849-.784-5.917 4.083v29.75l55 22 13.678-6.863v-30.017c.001-9.993-8.175-18.169-18.169-18.169z" fill="#80b4fb"/><path d="m211.387 241.896h-42.751c-9.993 0-18.17 8.176-18.17 18.17v30.017l3.325 1.291 18.667 2.905 46.105-16.047v-35.609l-4.939-2.844z" fill="#80b4fb"/><g><path d="m192.967 260.065c0-9.993 8.176-18.17 18.17-18.17h-42.5c-9.993 0-18.17 8.176-18.17 18.17v30.017l3.325 1.291 18.667 2.905 20.508-7.138z" fill="#61a2f9"/></g><g fill="#ff7f87"><path d="m338.858 290.609c-12.621-4.888-24.159-9.356-31.221-12.092l-11.615 11.893h-79.832l-11.611-12.178-31.182 12.178-2.605 2.389v209.646l2.669 2.665h165.349l1.524-3.498v-209.813z"/><path d="m401.527 314.879c-1.294-.501-8.724-3.379-19.015-7.365l-5.303 5.096v118l5.303 2.667h49.28l8.773-7.333c0-23.222 0-44.874 0-50.514 0-27.619-17.683-51.762-39.038-60.551z"/><path d="m129.759 307.453-19.014 7.426c-16.69 6.869-39.039 28.481-39.039 60.551v50.514l4.753 7.333h53.3l3.95-2.167v-119.75z"/></g><path d="m110.745 314.879c-16.69 6.869-39.039 28.481-39.039 60.551v50.514l4.753 7.333h29.858c0-28.406 0-56.115 0-71.667 0-26.903 11.794-44.119 19.905-52.776z" fill="#ff636e"/><path d="m129.759 425.944h-58.053v66.156c0 7.185 5.825 13.009 13.009 13.009h45.044l2.7-1.873v-74.75z" fill="#ffcebe"/><path d="m106.316 425.944h-34.61v66.156c0 7.185 5.825 13.009 13.009 13.009h21.601c0-20.114 0-50.506 0-79.165z" fill="#ffb1a0"/><path d="m382.512 425.944-4.64 5v70.833l4.64 3.331h45.044c7.185 0 13.009-5.825 13.009-13.009 0-5.958 0-37.271 0-66.156h-58.053z" fill="#ffcebe"/><path d="m170.792 425.944h169.542v38.792h-169.542z" fill="#f9f6f9"/><path d="m296.021 290.41h-79.831l-11.611-12.178-28.239 11.029c3.545 13.434 10.475 25.795 20.386 35.974 15.579 16 36.943 24.811 60.157 24.811 37.768 0 69.623-25.741 78.979-60.596-11.437-4.429-21.727-8.414-28.226-10.931z" fill="#ff636e"/><path d="m300.662 275.816c-2.766-1.069-4.605-3.731-4.613-6.713l-.02-23.725-3.738-5.6h-71.167l-4.947 5.494v23.788c0 2.973-1.43 4.725-3.075 5.842l-8.524 3.329c4.484 22.873 24.229 41.813 52.305 41.813 25.042 0 45.984-17.871 50.752-41.528-3.783-1.465-6.286-2.434-6.973-2.7z" fill="#ffcebe"/><path d="m256.108 239.778h-34.983l-4.947 5.494v23.788c0 2.973-1.43 4.725-3.075 5.842l-8.524 3.329c4.442 22.66 23.869 41.449 51.529 41.797z" fill="#ffb1a0"/><path d="m341.887 131.968-.928-1.94h-14.833v54.667l2.179 2.978c18.32 1.948 33.5-11.469 33.5-27.87-.001-12.435-8.099-24.096-19.918-27.835z" fill="#ffcebe"/><path d="m168.147 133.567c-10 4.496-17.68 14.894-17.68 26.331 0 16.358 15.161 29.777 33.498 27.764l2.328-3.676v-52.042h-16.5z" fill="#ffcebe"/><path d="m347.451 134.48c-1.742-1.029-3.595-1.889-5.564-2.512l-.928-1.94h-14.833v54.667l2.179 2.978c7.086.754 13.697-.799 19.147-3.927v-49.266z" fill="#ffb1a0"/><path d="m171.792 159.898c0-10.188 6.101-19.54 14.5-24.641v-3.313h-16.5l-1.645 1.623c-10 4.496-17.68 14.894-17.68 26.331 0 16.358 15.161 29.777 33.498 27.764l2.328-3.676v-.108c-8.727-4.922-14.501-13.888-14.501-23.98z" fill="#ffb1a0"/><path d="m163.51 284.71-29.289 12.063c-2.7 1.112-4.462 3.744-4.462 6.664v201.672h43.702v-213.736c0-5.129-5.208-8.617-9.951-6.663z" fill="#8479c2"/><path d="m378.05 296.773-29.289-12.063c-4.743-1.954-9.951 1.534-9.951 6.663v213.736h43.702v-201.672c0-2.92-1.762-5.552-4.462-6.664z" fill="#8479c2"/><path d="m152.857 289.097-18.637 7.676c-2.7 1.112-4.462 3.744-4.462 6.664v201.672h20.708v-210.672c.001-2.077.904-3.998 2.391-5.34z" fill="#6e60b8"/><path d="m359.837 289.272-11.076-4.562c-4.743-1.954-9.951 1.534-9.951 6.663v213.736h20.708v-213.736c0-.74.119-1.441.319-2.101z" fill="#6e60b8"/><path d="m324.625 128.944-14.667-25h-6l-35.167 25.5h-36.917l-2.891 3.783v52.365c0 29.96 18.443 57.86 48.251 68.477 29.508-8.688 51.117-36.003 51.117-68.286v-51.616z" fill="#ffdecf"/><g><path d="m230.252 185.783v-51.052l4.04-5.287h-46.333l-4.04 5.287v51.052c0 37.205 29.151 71.186 73.247 71.186 7.835 0 15.37-1.291 22.426-3.64-30.412-9.707-49.34-37.573-49.34-67.546z" fill="#ffcebe"/></g><path d="m323.727 41.026c-6.802.523-13.042-3.754-14.352-10.449-2.205-11.275-7.787-22.464-29.593-22.464h-75.654c-27.766 0-50.275 22.509-50.275 50.275v55.175c0 11.691 9.477 21.168 21.168 21.168h85.865c19.206 0 35.885-10.774 44.349-26.605.656-1.227 2.519-.748 2.519.644 0 14.279 11.682 25.961 25.961 25.961 7.484 0 13.608-6.124 13.608-13.608v-57.577c.001-13.565-11.833-23.424-23.596-22.52z" fill="#fff1af"/><g><path d="m200.187 113.563v-55.175c0-27.766 22.509-50.275 50.275-50.275h-46.333c-27.766 0-50.275 22.509-50.275 50.275v55.176c0 11.691 9.477 21.168 21.168 21.168h46.333c-11.69 0-21.168-9.478-21.168-21.169z" fill="#ffe07d"/></g></g><path d="m404.244 307.331c-.048-.02-.096-.039-.145-.058l-14.266-5.525c-.4-5.539-3.868-10.382-9.065-12.522l-11.602-4.779v-24.995c0-14.154-11.516-25.67-25.67-25.67h-24.664c8.722-11.064 14.537-24.51 16.298-39.192 19.515-1.711 34.036-17.268 34.036-35.4 0-12.417-6.299-23.904-16.102-30.579 1.042-2.496 1.622-5.231 1.622-8.101v-18.29c0-4.142-3.357-7.5-7.5-7.5s-7.5 3.358-7.5 7.5v18.291c0 2.947-2.244 7.335-9.915 5.707-8.571-1.82-14.654-9.503-14.654-18.06 0-4.016-2.736-7.588-6.697-8.581-3.938-.986-8.022.823-9.936 4.401-7.466 13.965-21.925 22.641-37.734 22.641-9.149 0-76.426 0-85.865 0-7.19 0-13.668-5.846-13.668-13.668v-55.177c0-23.586 19.188-42.774 42.774-42.774h75.654c17.569 0 20.542 7.759 22.232 16.404 2 10.222 11.576 17.308 22.287 16.487 7.552-.578 15.521 5.965 15.521 15.042v4.287c0 4.142 3.357 7.5 7.5 7.5s7.5-3.358 7.5-7.5v-4.287c0-18.046-15.642-31.229-31.672-29.998-3.177.252-5.868-1.611-6.416-4.41-3.752-19.194-15.839-28.525-36.951-28.525h-75.654c-31.856 0-57.774 25.917-57.774 57.774v55.176c0 7.854 3.177 14.979 8.311 20.161-7.256 6.847-11.698 16.362-11.698 26.174 0 17.852 14.256 33.628 34.031 35.313 1.706 14.36 7.285 27.851 16.238 39.184h-24.599c-14.154 0-25.67 11.516-25.67 25.67v24.995l-11.602 4.779c-5.182 2.135-8.646 6.955-9.063 12.475l-14.286 5.579c-.042.017-.084.034-.126.051-21.04 8.659-43.685 33.471-43.685 67.487v50.514 66.156c0 11.309 9.2 20.509 20.51 20.509h342.841c11.309 0 20.509-9.2 20.509-20.509v-66.156-50.514c-.001-29.15-17.964-56.901-43.685-67.487zm-115.899-49.993c.019-.009.039-.015.058-.024l.009 11.196c.015 5.837 3.223 11.293 10.066 13.944-6.181 17.399-22.846 29.478-41.731 29.478-23.258 0-37.886-14.145-43.323-29.77l2.27-.887c2.743-1.072 7.847-5.379 7.847-12.829v-11.325c19.452 8.354 43.524 9.482 64.804.217zm-88.904 30.285c8.377 23.527 30.804 39.308 57.306 39.308 25.136 0 47.32-15.99 55.71-39.065l13.995 5.42c-10.653 28.95-38.422 48.645-69.705 48.645-33.794 0-60.908-20.297-71.301-48.843zm-18.618 145.208h57.675c4.143 0 7.5-3.358 7.5-7.5s-3.357-7.5-7.5-7.5h-57.675v-100.873c16.696 25.169 44.613 39.974 75.924 39.974 30.5 0 58.21-15.58 74.426-40.031v100.93h-57.675c-4.143 0-7.5 3.358-7.5 7.5s3.357 7.5 7.5 7.5h57.675v23.792h-150.35zm173.344-173.379v18.816l-2.687-1.107c-5.597-2.305-12.056-.937-16.241 3.443l-25.03-9.694s-6.796-2.632-6.797-2.632l-.016-19.496h40.101c5.884 0 10.67 4.787 10.67 10.67zm-18.452-80.041v-37.9c1.777-.148 4.5-.826 6.654-1.824 6.983 3.552 11.798 11.295 11.798 19.503 0 10.253-8.151 18.514-18.452 20.221zm-32.248-56.667c3.522 7.24 9.589 13.011 17.02 16.185.077.033.151.07.229.102v46.139c0 35.372-28.895 63.686-63.687 63.686-40.788 0-65.747-32.052-65.747-63.686v-43.552h69.469c16.221 0 31.787-6.855 42.716-18.874zm-145.638 36.541c0-7.176 4.422-14.39 11.003-18.316 1.952.421 3.976.649 6.052.649h1.396v37.811c-10.304-1.668-18.451-9.918-18.451-20.144zm0 118.984v-18.816c0-5.883 4.786-10.67 10.67-10.67h40.042v19.183c-6.731 2.629-25.183 9.835-31.937 12.473-4.15-4.211-10.503-5.579-16.088-3.276zm-44.426 42.957 8.719-3.405v100.01h-43.054v-43.014c0-28.911 20.511-47.873 34.335-53.591zm-34.335 170.261v-58.656h43.054v64.165h-37.544c-3.038 0-5.51-2.472-5.51-5.509zm58.054-188.467c11.445-4.714 17.255-7.107 28.701-11.822v205.798h-28.701c0-5.806 0-188.699 0-193.976zm43.701 168.603h150.35v25.373h-150.35zm165.35-180.424c26.366 10.859-1.747-.72 28.701 11.821v193.976h-28.701c0-7.816 0-195.797 0-205.797zm86.755 200.288c0 3.038-2.472 5.509-5.509 5.509h-37.545v-64.165h43.054zm0-73.656h-43.054v-99.982l8.731 3.381c17.068 7.062 34.322 27.716 34.322 53.587v43.014z"/></g></svg>