<?xml version="1.0" encoding="iso-8859-1"?>
<!-- Generator: Adobe Illustrator 19.0.0, SVG Export Plug-In . SVG Version: 6.00 Build 0)  -->
<svg version="1.1" id="Capa_1" xmlns="http://www.w3.org/2000/svg" xmlns:xlink="http://www.w3.org/1999/xlink" x="0px" y="0px"
	 viewBox="0 0 512.002 512.002" style="enable-background:new 0 0 512.002 512.002;" xml:space="preserve">
<path style="fill:#EAC092;" d="M137.189,377.632v75.876c43.218,1.906,30.748,9.544,105.942,43.352
	c9.578,3.768,31.684,9.939,55.361-0.942c0.013-0.005,0.034-0.014,0.047-0.019l147.723-52.891
	c4.807-2.211,29.055-15.386,19.49-39.922c-11.181-26.165-39.954-15.251-42.367-14.466l-77.122,21.323"/>
<g>
	<path style="fill:#FEDBAB;" d="M224.442,409.376l85.887,27.218c14.989,4.262,30.594-4.434,34.856-19.423l0,0
		c4.262-14.989-4.434-30.594-21.609-36.968l-76.193-25.86c-0.002-0.003-16.265-26.566-54.999-26.566
		c-24.456,0-45.54,19.768-55.197,37.072v34.55"/>
</g>
<path d="M190.219,408.528c-0.66,0-1.31-0.06-1.96-0.19c-0.64-0.13-1.27-0.319-1.87-0.569c-0.6-0.25-1.18-0.56-1.73-0.921
	c-0.54-0.369-1.06-0.779-1.52-1.25c-0.46-0.46-0.88-0.97-1.24-1.52c-0.36-0.54-0.67-1.12-0.92-1.72c-0.25-0.61-0.44-1.24-0.57-1.87
	c-0.13-0.65-0.2-1.311-0.2-1.96c0-0.65,0.07-1.31,0.2-1.95s0.32-1.271,0.57-1.87c0.25-0.61,0.56-1.19,0.92-1.73
	c0.36-0.551,0.78-1.061,1.24-1.52c0.46-0.46,0.98-0.88,1.52-1.24c0.55-0.359,1.13-0.67,1.73-0.92c0.6-0.25,1.23-0.439,1.87-0.569
	c1.29-0.261,2.62-0.261,3.911,0c0.64,0.13,1.27,0.319,1.87,0.569c0.6,0.25,1.18,0.561,1.73,0.92c0.54,0.36,1.06,0.78,1.52,1.24
	c0.46,0.46,0.88,0.97,1.24,1.52c0.36,0.54,0.67,1.119,0.92,1.73c0.25,0.6,0.44,1.23,0.57,1.87c0.13,0.64,0.19,1.3,0.19,1.95
	c0,0.649-0.06,1.31-0.19,1.96c-0.13,0.63-0.32,1.26-0.57,1.87c-0.25,0.6-0.56,1.18-0.92,1.72c-0.37,0.55-0.79,1.06-1.25,1.52
	C195.43,407.467,192.85,408.528,190.219,408.528z"/>
<rect x="100.939" y="363.626" style="fill:#EAECF0;" width="36.257" height="102.818"/>
<rect x="44.039" y="363.626" style="fill:#3688C8;" width="56.899" height="120.652"/>
<path style="fill:#EAC092;" d="M374.813,134.368V58.493c-43.218-1.907-30.748-9.544-105.942-43.352
	c-9.578-3.768-31.684-9.939-55.361,0.942c-0.013,0.005-0.034,0.014-0.047,0.019L65.74,68.994
	c-4.808,2.211-29.055,15.386-19.491,39.922c11.181,26.165,39.954,15.251,42.367,14.466l77.122-21.323"/>
<g>
	<path style="fill:#FEDBAB;" d="M287.56,102.625l-85.887-27.218c-14.989-4.262-30.594,4.434-34.856,19.422l0,0
		c-4.262,14.989,4.434,30.594,21.609,36.968l76.193,25.86c0.002,0.003,16.266,26.566,54.999,26.566
		c24.456,0,45.54-19.768,55.197-37.071v-34.55"/>
</g>
<path d="M321.793,123.476c-0.66,0-1.311-0.07-1.961-0.2c-0.64-0.13-1.27-0.32-1.869-0.57c-0.601-0.25-1.181-0.56-1.73-0.92
	c-0.54-0.359-1.06-0.78-1.52-1.24c-0.46-0.46-0.881-0.97-1.24-1.52c-0.36-0.54-0.67-1.13-0.92-1.73c-0.25-0.6-0.44-1.229-0.57-1.869
	c-0.13-0.641-0.2-1.301-0.2-1.95c0-0.65,0.07-1.311,0.2-1.96c0.13-0.641,0.32-1.261,0.57-1.87c0.25-0.601,0.56-1.18,0.92-1.72
	c0.359-0.551,0.78-1.061,1.24-1.521c0.46-0.47,0.979-0.88,1.52-1.25c0.55-0.36,1.13-0.67,1.73-0.92c0.6-0.25,1.229-0.44,1.869-0.57
	c3.251-0.65,6.701,0.41,9.032,2.74c0.46,0.46,0.88,0.97,1.24,1.521c0.36,0.54,0.67,1.119,0.92,1.72c0.25,0.609,0.44,1.229,0.57,1.87
	c0.13,0.65,0.189,1.31,0.189,1.96c0,0.649-0.06,1.31-0.189,1.95c-0.13,0.64-0.32,1.27-0.57,1.869c-0.25,0.61-0.56,1.19-0.92,1.73
	c-0.36,0.55-0.78,1.06-1.24,1.52s-0.98,0.881-1.52,1.24c-0.55,0.36-1.13,0.67-1.73,0.92c-0.6,0.25-1.23,0.44-1.87,0.57
	C323.093,123.406,322.443,123.476,321.793,123.476z"/>
<rect x="374.818" y="45.557" style="fill:#EAECF0;" width="36.257" height="102.818"/>
<rect x="411.065" y="27.725" style="fill:#3688C8;" width="56.899" height="120.652"/>
<path d="M475.071,399.452c-0.039-0.1-0.08-0.199-0.122-0.298c-8.904-20.84-29.768-28.546-54.449-20.118l-66.249,18.319
	c-3.978-11.624-13.621-21.492-27.196-26.529c-0.088-0.033-0.176-0.064-0.265-0.095l-73.166-24.832
	c-6.24-8.019-25.458-28.123-61.24-28.123c-25.076,0-47.257,17.125-59.999,35.844H44.037c-5.524,0-10.002,4.479-10.002,10.002
	v120.653c0,5.523,4.478,10.002,10.002,10.002h56.899c5.524,0,10.002-4.479,10.002-10.002v-7.829h26.252
	c5.524,0,10.002-4.479,10.002-10.002v-2.281c15.101,1.371,20.237,4.332,34.307,12.446c10.995,6.34,27.609,15.921,57.532,29.373
	c0.145,0.065,0.292,0.127,0.439,0.186c5.768,2.269,17.045,5.834,30.95,5.834c9.677-0.001,20.625-1.727,31.869-6.821l147.345-52.755
	c0.273-0.099,0.543-0.208,0.808-0.33C464.662,445.553,485.85,427.105,475.071,399.452z M90.933,474.272H54.039V373.624h36.896
	L90.933,474.272L90.933,474.272z M127.188,456.441h-16.25v-82.818h16.25V456.441z M442.447,433.749
	c0,0-148.014,53.027-148.132,53.08c-20.355,9.355-39.711,3.76-47.309,0.806c-28.858-12.984-44.262-21.867-55.516-28.357
	c-15.624-9.01-23.199-13.378-44.3-15.165v-76.557c9.025-14.732,26.441-29.776,45.195-29.776c32.266,0,45.945,20.962,46.48,21.804
	c1.221,1.984,3.098,3.482,5.305,4.231l76.051,25.812c11.922,4.479,18.229,14.664,15.344,24.809c-1.33,4.68-4.403,8.561-8.653,10.929
	c-4.209,2.347-9.075,2.932-13.718,1.645l-85.729-27.168c-5.267-1.667-10.888,1.248-12.556,6.514s1.247,10.887,6.513,12.556
	l85.888,27.218c0.095,0.029,0.189,0.059,0.285,0.085c3.469,0.986,6.999,1.475,10.51,1.475c6.425,0,12.778-1.636,18.545-4.851
	c8.917-4.969,15.365-13.112,18.156-22.931c0.199-0.699,0.376-1.398,0.534-2.096l71.628-19.844
	c10.201-3.487,23.589-4.759,29.525,8.901C462.617,422.888,446.645,431.743,442.447,433.749z"/>
<path d="M37.052,112.846c8.905,20.838,29.768,28.547,54.449,20.118l66.249-18.319c3.978,11.624,13.621,21.493,27.195,26.529
	c0.088,0.033,0.176,0.064,0.265,0.095l73.166,24.832c6.24,8.019,25.457,28.123,61.239,28.123c25.074,0,47.255-17.125,59.999-35.844
	h88.35c5.523,0,10.002-4.479,10.002-10.002V27.726c0-5.524-4.479-10.002-10.002-10.002h-56.899c-5.524,0-10.002,4.478-10.002,10.002
	v7.829h-26.251c-5.523,0-10.002,4.479-10.002,10.002v2.282c-15.101-1.371-20.238-4.333-34.308-12.446
	c-10.994-6.34-27.609-15.921-57.532-29.373c-0.145-0.065-0.291-0.127-0.44-0.186c-9.781-3.85-35.419-11.424-62.816,0.986
	L62.368,59.577c-0.274,0.099-0.543,0.209-0.808,0.33c-14.22,6.541-35.408,24.989-24.629,52.641
	C36.97,112.648,37.01,112.747,37.052,112.846z M421.068,37.728h36.896v100.649h-36.896V37.728z M384.815,55.559h16.249v82.818
	h-16.249V55.559z M69.556,78.251c0,0,148.004-53.023,148.131-53.08c20.356-9.356,39.713-3.76,47.308-0.806
	c28.858,12.984,44.262,21.867,55.517,28.357c15.623,9.01,23.199,13.378,44.3,15.165v76.557
	c-9.025,14.733-26.441,29.776-45.196,29.776c-32.266,0-45.944-20.962-46.48-21.804c-1.221-1.984-3.098-3.482-5.305-4.231
	l-76.051-25.812c-11.922-4.479-18.23-14.664-15.345-24.809c1.331-4.68,4.404-8.562,8.654-10.929
	c4.211-2.348,9.079-2.931,13.718-1.645l85.729,27.168c5.264,1.668,10.887-1.248,12.556-6.514c1.668-5.266-1.247-10.887-6.514-12.556
	l-85.884-27.216c-0.095-0.029-0.19-0.059-0.286-0.085c-9.819-2.793-20.138-1.595-29.055,3.376
	c-8.918,4.969-15.366,13.112-18.157,22.931c-0.199,0.699-0.376,1.398-0.534,2.097l-71.627,19.844
	c-10.202,3.484-23.589,4.758-29.524-8.901C49.385,89.112,65.358,80.258,69.556,78.251z"/>
<circle style="fill:#FFD36C;" cx="112.881" cy="231.462" r="83.855"/>
<path d="M112.879,325.316c-51.753,0-93.858-42.105-93.858-93.858s42.105-93.859,93.858-93.859s93.858,42.106,93.858,93.859
	C206.738,283.211,164.633,325.316,112.879,325.316z M112.879,157.603c-40.723,0-73.854,33.131-73.854,73.855
	c0,40.723,33.131,73.854,73.854,73.854s73.854-33.131,73.854-73.854C186.735,190.733,153.604,157.603,112.879,157.603z"/>
<path d="M140.533,264.783c0,3.891-1.649,7.78-4.948,7.78H88.969c-3.299,0-4.948-3.891-4.948-7.78c0-3.89,1.649-7.779,4.948-7.779
	h5.497l3.519-26.316h-5.167c-2.748,0-4.178-3.09-4.178-6.293c0-3.09,1.429-6.293,4.178-6.293h6.926l1.1-7.895
	c2.088-15.103,15.282-25.515,29.574-25.515h4.618c3.519,0,5.498,3.891,5.498,7.665c0,3.776-1.979,7.78-5.498,7.78h-5.167
	c-7.806,0-11.214,4.233-11.984,10.068l-1.099,7.895h11.764c2.748,0,4.178,3.204,4.178,6.293c0,3.204-1.429,6.293-4.178,6.293
	h-13.522l-3.628,26.316h24.187C138.884,257.003,140.533,260.894,140.533,264.783z"/>
<circle style="fill:#FCB651;" cx="399.123" cy="280.541" r="83.855"/>
<path d="M399.123,374.402c-51.753,0-93.858-42.105-93.858-93.858s42.105-93.859,93.858-93.859s93.858,42.106,93.858,93.859
	S450.876,374.402,399.123,374.402z M399.123,206.688c-40.723,0-73.854,33.131-73.854,73.855c0,40.723,33.131,73.854,73.854,73.854
	s73.854-33.131,73.854-73.854C472.977,239.819,439.846,206.688,399.123,206.688z"/>
<path d="M394.672,321.505c-13.192-0.459-23.968-7.552-23.968-14.874c0-3.892,3.3-9.611,7.477-9.611
	c4.617,0,8.355,6.749,16.491,8.237v-18.536c-10.114-4.005-21.989-8.924-21.989-23.568c0-14.532,10.336-21.51,21.989-23.227v-3.204
	c0-1.602,1.759-3.089,4.178-3.089c2.089,0,4.179,1.486,4.179,3.089v2.86c6.816,0.23,19.68,2.061,19.68,9.955
	c0,3.089-1.978,9.383-6.815,9.383c-3.629,0-5.718-3.661-12.863-4.233v16.704c10.005,3.89,21.658,9.268,21.658,24.713
	c0,14.189-8.795,22.77-21.658,24.942v3.319c0,1.602-2.089,3.089-4.179,3.089c-2.418,0-4.178-1.486-4.178-3.089v-2.86H394.672z
	 M395.771,268.643v-13.615c-4.947,1.031-7.036,3.663-7.036,6.407C388.735,264.754,391.594,266.813,395.771,268.643z
	 M401.927,289.811v15.331c3.739-0.914,6.706-3.089,6.706-7.208C408.635,294.158,405.885,291.756,401.927,289.811z"/>
<g>
</g>
<g>
</g>
<g>
</g>
<g>
</g>
<g>
</g>
<g>
</g>
<g>
</g>
<g>
</g>
<g>
</g>
<g>
</g>
<g>
</g>
<g>
</g>
<g>
</g>
<g>
</g>
<g>
</g>
</svg>
